# Blender v2.93.0 OBJ File: 'CowboyHat.blend'
# www.blender.org
mtllib CowboyHat.mtl
o Cowboy_Hat_Cylinder
v -0.000000 0.226885 -0.362647
v 0.000000 0.456167 -0.186592
v 0.256430 0.226885 -0.256430
v 0.131940 0.456167 -0.131940
v 0.362647 0.226885 0.000000
v 0.186592 0.456167 0.000000
v 0.256430 0.226885 0.256430
v 0.131940 0.456167 0.131940
v -0.000000 0.226885 0.362647
v -0.000000 0.456167 0.186592
v -0.256430 0.226885 0.256430
v -0.131940 0.456167 0.131940
v -0.362647 0.226885 -0.000000
v -0.186592 0.456167 -0.000000
v -0.256430 0.226885 -0.256430
v -0.131940 0.456167 -0.131940
v -0.000000 0.187507 -0.373867
v 0.264364 0.187507 -0.264364
v 0.373867 0.187507 0.000000
v 0.264364 0.187507 0.264364
v -0.000000 0.187507 0.373867
v -0.264364 0.187507 0.264364
v -0.373867 0.187507 -0.000000
v -0.264364 0.187507 -0.264364
v 0.000000 0.156333 -0.395446
v 0.279623 0.156333 -0.279623
v 0.395446 0.156333 0.000000
v 0.279623 0.156333 0.279623
v -0.000000 0.156333 0.395446
v -0.279623 0.156333 0.279623
v -0.395446 0.156333 -0.000000
v -0.279623 0.156333 -0.279623
v 0.000000 0.054607 -0.541437
v 0.382854 0.054607 -0.382854
v 0.541437 0.054607 0.000000
v 0.382854 0.054607 0.382854
v -0.000000 0.054607 0.525920
v -0.382854 0.054607 0.382854
v -0.541437 0.054607 -0.000000
v -0.382854 0.054607 -0.382854
v 0.000000 0.054607 -0.825267
v 0.430659 0.209344 -0.583552
v 0.609044 0.209344 0.000000
v 0.430659 0.209344 0.583552
v -0.000000 0.054607 0.825267
v -0.430659 0.209344 0.583552
v -0.609044 0.209344 -0.000000
v -0.430659 0.209344 -0.583552
v -0.128215 0.226885 0.309539
v -0.065970 0.456167 0.159266
v -0.132182 0.187507 0.319115
v -0.139811 0.156333 0.337534
v -0.191427 0.020147 0.462145
v -0.215329 0.097516 0.758314
v 0.128215 0.226885 0.309539
v 0.065970 0.456167 0.159266
v 0.132182 0.187507 0.319115
v 0.139811 0.156333 0.337534
v 0.191427 0.020147 0.462145
v 0.215329 0.097516 0.758314
v 0.128215 0.226885 -0.309539
v 0.065970 0.456167 -0.159266
v 0.132182 0.187507 -0.319115
v 0.139811 0.156333 -0.337534
v 0.191427 0.020147 -0.462145
v 0.215329 0.097516 -0.758314
v -0.128215 0.226885 -0.309539
v -0.065970 0.456167 -0.159266
v -0.132182 0.187507 -0.319115
v -0.139811 0.156333 -0.337534
v -0.191427 0.020147 -0.462145
v -0.215329 0.097516 -0.758314
v 0.128342 0.516686 -0.307279
v 0.000000 0.498051 -0.360000
v 0.358149 0.553391 0.000000
v 0.254028 0.536760 -0.254558
v 0.254028 0.536760 0.254558
v 0.128341 0.516686 0.307279
v -0.128423 0.516183 0.307279
v -0.000000 0.498051 0.360000
v -0.358007 0.554265 -0.000000
v -0.253987 0.537011 0.254558
v -0.253987 0.537011 -0.254558
v -0.128423 0.516183 -0.307279
v 0.101461 0.514438 -0.272872
v -0.000001 0.498051 -0.319690
v 0.282664 0.547033 0.000000
v 0.200564 0.532265 -0.226055
v 0.200564 0.532265 0.226055
v 0.101461 0.514438 0.272872
v -0.101546 0.513851 0.272872
v -0.000001 0.498051 0.319690
v -0.282573 0.547669 -0.000000
v -0.200553 0.532347 0.226055
v -0.200553 0.532347 -0.226055
v -0.101546 0.513851 -0.272872
v -0.000000 0.224763 -0.348405
v 0.000017 0.442106 -0.189696
v 0.246351 0.224751 -0.246371
v 0.136360 0.442773 -0.134840
v 0.348409 0.224739 0.000000
v 0.192600 0.443081 0.000000
v 0.246351 0.224751 0.246371
v 0.136360 0.442773 0.134840
v -0.000000 0.224763 0.348405
v 0.000017 0.442106 0.189696
v -0.246350 0.224750 0.246372
v -0.136382 0.442777 0.134825
v -0.348409 0.224736 -0.000000
v -0.192621 0.443091 -0.000000
v -0.246350 0.224750 -0.246372
v -0.136382 0.442777 -0.134825
v -0.000000 0.181121 -0.360961
v 0.255238 0.181121 -0.255238
v 0.360961 0.181121 0.000000
v 0.255238 0.181121 0.255238
v -0.000000 0.181121 0.360961
v -0.255238 0.181121 0.255238
v -0.360961 0.181121 -0.000000
v -0.255238 0.181121 -0.255238
v 0.000000 0.146243 -0.385173
v 0.272792 0.146044 -0.272219
v 0.385583 0.145842 0.000000
v 0.272792 0.146044 0.272219
v -0.000000 0.146432 0.384991
v -0.272792 0.146044 0.272219
v -0.385583 0.145842 -0.000000
v -0.272792 0.146044 -0.272219
v 0.000000 0.004125 -0.538811
v 0.387982 0.041152 -0.382767
v 0.546671 0.041192 0.000000
v 0.387982 0.041152 0.382767
v -0.000000 0.004223 0.522812
v -0.387982 0.041152 0.382767
v -0.546671 0.041192 -0.000000
v -0.387982 0.041152 -0.382767
v 0.000000 0.040328 -0.827132
v 0.439465 0.198864 -0.588021
v 0.621397 0.201945 0.000000
v 0.439465 0.198864 0.588021
v -0.000000 0.040323 0.827087
v -0.439465 0.198864 0.588021
v -0.621397 0.201945 -0.000000
v -0.439465 0.198864 -0.588021
v -0.122754 0.224981 0.296352
v -0.067898 0.442173 0.162060
v -0.127135 0.181726 0.306931
v -0.135681 0.147087 0.327297
v -0.192205 0.006103 0.459059
v -0.218755 0.083846 0.761277
v 0.122754 0.224981 0.296352
v 0.067902 0.442177 0.162076
v 0.127135 0.181726 0.306931
v 0.135681 0.147087 0.327297
v 0.192205 0.006103 0.459059
v 0.218755 0.083846 0.761277
v 0.122754 0.224981 -0.296352
v 0.067902 0.442177 -0.162076
v 0.127135 0.181726 -0.306931
v 0.135607 0.147026 -0.327383
v 0.192089 0.006098 -0.459057
v 0.218804 0.083864 -0.761301
v -0.122754 0.224981 -0.296352
v -0.067898 0.442173 -0.162060
v -0.127135 0.181726 -0.306931
v -0.135607 0.147026 -0.327383
v -0.192089 0.006098 -0.459057
v -0.218804 0.083864 -0.761301
v 0.125839 0.405272 -0.297345
v 0.000010 0.388184 -0.348430
v 0.347551 0.442348 0.000000
v 0.246835 0.426023 -0.246406
v 0.246835 0.426023 0.246406
v 0.125839 0.405272 0.297345
v -0.125927 0.404787 0.297326
v 0.000010 0.388184 0.348430
v -0.347431 0.443198 -0.000000
v -0.246820 0.426263 0.246396
v -0.246820 0.426263 -0.246396
v -0.125927 0.404787 -0.297326
v 0.104402 0.500559 -0.275338
v 0.000028 0.483752 -0.321387
v 0.287338 0.533413 0.000000
v 0.204203 0.518402 -0.227446
v 0.204203 0.518402 0.227446
v 0.104402 0.500559 0.275338
v -0.104483 0.499970 0.275327
v 0.000028 0.483752 0.321387
v -0.287290 0.534064 -0.000000
v -0.204246 0.518495 0.227416
v -0.204246 0.518495 -0.227416
v -0.104483 0.499970 -0.275327
vt 0.937500 0.500000
vt 0.937500 1.000000
vt 0.875000 1.000000
vt 0.875000 0.500000
vt 0.750000 1.000000
vt 0.750000 0.500000
vt 0.625000 1.000000
vt 0.625000 0.500000
vt 0.562500 0.500000
vt 0.562500 1.000000
vt 0.500000 1.000000
vt 0.500000 0.500000
vt 0.437500 0.500000
vt 0.437500 1.000000
vt 0.375000 1.000000
vt 0.375000 0.500000
vt 0.250000 1.000000
vt 0.250000 0.500000
vt 0.352202 0.352202
vt 0.301101 0.373369
vt 0.250000 0.394536
vt 0.198899 0.373369
vt 0.147798 0.352202
vt 0.105464 0.250000
vt 0.147798 0.147798
vt 0.198899 0.126631
vt 0.250000 0.105464
vt 0.301101 0.126631
vt 0.352202 0.147798
vt 0.394536 0.250000
vt 0.125000 1.000000
vt 0.125000 0.500000
vt 0.062500 0.500000
vt 0.062500 1.000000
vt 0.000000 1.000000
vt 0.000000 0.500000
vt 0.250000 0.500000
vt 0.375000 0.500000
vt 0.500000 0.500000
vt 0.562500 0.500000
vt 0.125000 0.500000
vt 0.750000 0.500000
vt 0.875000 0.500000
vt 0.437500 0.500000
vt 0.000000 0.500000
vt 0.062500 0.500000
vt 0.937500 0.500000
vt 0.625000 0.500000
vt 0.500000 0.500000
vt 0.562500 0.500000
vt 0.750000 0.500000
vt 0.875000 0.500000
vt 0.125000 0.500000
vt 0.250000 0.500000
vt 0.375000 0.500000
vt 0.437500 0.500000
vt 0.625000 0.500000
vt 0.937500 0.500000
vt 0.000000 0.500000
vt 0.062500 0.500000
vt 0.000000 0.500000
vt 0.062500 0.500000
vt 0.250000 0.500000
vt 0.375000 0.500000
vt 0.500000 0.500000
vt 0.562500 0.500000
vt 0.750000 0.500000
vt 0.875000 0.500000
vt 0.125000 0.500000
vt 0.437500 0.500000
vt 0.625000 0.500000
vt 0.937500 0.500000
vt 0.375000 0.500000
vt 0.437500 0.500000
vt 0.625000 0.500000
vt 0.750000 0.500000
vt 0.875000 0.500000
vt 0.937500 0.500000
vt 0.000000 0.500000
vt 0.062500 0.500000
vt 0.250000 0.500000
vt 0.500000 0.500000
vt 0.562500 0.500000
vt 0.125000 0.500000
vt 1.000000 0.500000
vt 1.000000 0.500000
vt 1.000000 0.500000
vt 1.000000 0.500000
vt 1.000000 0.500000
vt 1.000000 1.000000
vt 0.250000 0.432153
vt 0.314401 0.405478
vt 0.334853 0.454853
vt 0.250000 0.490000
vt 0.378802 0.378802
vt 0.432153 0.250000
vt 0.490000 0.250000
vt 0.419706 0.419706
vt 0.378802 0.121198
vt 0.419706 0.080294
vt 0.314401 0.094522
vt 0.334853 0.045147
vt 0.250000 0.067847
vt 0.185599 0.094522
vt 0.165147 0.045147
vt 0.250000 0.010000
vt 0.121198 0.121198
vt 0.067847 0.250000
vt 0.010000 0.250000
vt 0.080294 0.080294
vt 0.121198 0.378802
vt 0.080294 0.419706
vt 0.185599 0.405478
vt 0.165147 0.454853
vt 0.937500 0.500000
vt 0.875000 0.500000
vt 0.875000 1.000000
vt 0.937500 1.000000
vt 0.750000 0.500000
vt 0.750000 1.000000
vt 0.625000 0.500000
vt 0.625000 1.000000
vt 0.562500 0.500000
vt 0.500000 0.500000
vt 0.500000 1.000000
vt 0.562500 1.000000
vt 0.437500 0.500000
vt 0.375000 0.500000
vt 0.375000 1.000000
vt 0.437500 1.000000
vt 0.250000 0.500000
vt 0.250000 1.000000
vt 0.352202 0.352202
vt 0.394536 0.250000
vt 0.352202 0.147798
vt 0.301101 0.126631
vt 0.250000 0.105464
vt 0.198899 0.126631
vt 0.147798 0.147798
vt 0.105464 0.250000
vt 0.147798 0.352202
vt 0.198899 0.373369
vt 0.250000 0.394536
vt 0.301101 0.373369
vt 0.125000 0.500000
vt 0.125000 1.000000
vt 0.062500 0.500000
vt 0.000000 0.500000
vt 0.000000 1.000000
vt 0.062500 1.000000
vt 0.375000 0.500000
vt 0.250000 0.500000
vt 0.562500 0.500000
vt 0.500000 0.500000
vt 0.125000 0.500000
vt 0.875000 0.500000
vt 0.750000 0.500000
vt 0.437500 0.500000
vt 0.062500 0.500000
vt 0.000000 0.500000
vt 0.937500 0.500000
vt 0.625000 0.500000
vt 0.562500 0.500000
vt 0.500000 0.500000
vt 0.875000 0.500000
vt 0.750000 0.500000
vt 0.250000 0.500000
vt 0.125000 0.500000
vt 0.437500 0.500000
vt 0.375000 0.500000
vt 0.625000 0.500000
vt 0.937500 0.500000
vt 0.062500 0.500000
vt 0.000000 0.500000
vt 0.062500 0.500000
vt 0.000000 0.500000
vt 0.375000 0.500000
vt 0.250000 0.500000
vt 0.562500 0.500000
vt 0.500000 0.500000
vt 0.875000 0.500000
vt 0.750000 0.500000
vt 0.125000 0.500000
vt 0.437500 0.500000
vt 0.625000 0.500000
vt 0.937500 0.500000
vt 0.437500 0.500000
vt 0.375000 0.500000
vt 0.750000 0.500000
vt 0.625000 0.500000
vt 0.937500 0.500000
vt 0.875000 0.500000
vt 0.062500 0.500000
vt 0.000000 0.500000
vt 0.250000 0.500000
vt 0.562500 0.500000
vt 0.500000 0.500000
vt 0.125000 0.500000
vt 1.000000 0.500000
vt 1.000000 0.500000
vt 1.000000 0.500000
vt 1.000000 0.500000
vt 1.000000 0.500000
vt 1.000000 1.000000
vt 0.250000 0.432153
vt 0.250000 0.490000
vt 0.334853 0.454853
vt 0.314401 0.405478
vt 0.378802 0.378802
vt 0.419706 0.419706
vt 0.490000 0.250000
vt 0.432153 0.250000
vt 0.419706 0.080294
vt 0.378802 0.121198
vt 0.334853 0.045147
vt 0.314401 0.094522
vt 0.250000 0.067847
vt 0.250000 0.010000
vt 0.165147 0.045147
vt 0.185599 0.094522
vt 0.121198 0.121198
vt 0.080294 0.080294
vt 0.010000 0.250000
vt 0.067847 0.250000
vt 0.080294 0.419706
vt 0.121198 0.378802
vt 0.165147 0.454853
vt 0.185599 0.405478
vt 0.000000 0.000000
vt 0.000000 0.000000
vt 0.000000 0.000000
vt 0.000000 0.000000
vt 0.000000 0.000000
vt 0.000000 0.000000
vt 0.000000 0.000000
vt 0.000000 0.000000
vt 0.000000 0.000000
vt 0.000000 0.000000
vt 0.000000 0.000000
vt 0.000000 0.000000
vn 0.3842 0.0078 -0.9232
vn 0.9245 0.0111 -0.3809
vn 0.9245 0.0111 0.3809
vn 0.3808 0.0080 0.9246
vn -0.3843 0.0078 0.9232
vn -0.9246 0.0114 0.3808
vn 0.0000 1.0000 0.0000
vn -0.9246 0.0114 -0.3808
vn -0.3807 0.0080 -0.9247
vn -0.8934 0.2546 0.3701
vn 0.3701 0.2546 0.8934
vn -0.8934 0.2546 -0.3701
vn 0.8934 0.2546 -0.3701
vn -0.3701 0.2546 0.8934
vn -0.3701 0.2546 -0.8934
vn 0.3701 0.2546 -0.8934
vn 0.8934 0.2546 0.3701
vn 0.3224 0.5388 0.7783
vn 0.7783 0.5388 -0.3224
vn -0.7783 0.5388 -0.3224
vn -0.3224 0.5388 0.7783
vn 0.7783 0.5388 0.3224
vn 0.3224 0.5388 -0.7783
vn -0.3224 0.5388 -0.7783
vn -0.7783 0.5388 0.3224
vn -0.3214 0.7407 -0.5899
vn -0.5563 0.7984 0.2304
vn 0.3022 0.7268 0.6168
vn 0.5563 0.7984 -0.2304
vn -0.5563 0.7984 -0.2304
vn -0.1899 0.7407 0.6444
vn 0.5563 0.7984 0.2304
vn 0.1899 0.7407 -0.6444
vn 0.4875 0.8159 -0.3108
vn -0.8219 0.4923 -0.2866
vn -0.4875 0.8159 0.3108
vn 0.0670 0.9894 0.1292
vn 0.8219 0.4923 -0.2866
vn -0.0611 0.9901 -0.1262
vn -0.8219 0.4923 0.2866
vn 0.8219 0.4923 0.2866
vn 0.0611 0.9901 -0.1262
vn -0.3022 0.7268 0.6168
vn -0.3807 0.0080 0.9247
vn -0.4875 0.8159 -0.3108
vn 0.1899 0.7407 0.6444
vn 0.3842 0.0078 0.9232
vn -0.0670 0.9894 0.1292
vn 0.3214 0.7407 -0.5899
vn 0.3808 0.0080 -0.9246
vn 0.4875 0.8159 0.3108
vn -0.1899 0.7407 -0.6444
vn -0.3843 0.0078 -0.9232
vn -0.1416 0.9897 -0.0212
vn -0.0904 0.9955 -0.0300
vn -0.0904 0.9955 0.0300
vn -0.1364 0.9883 0.0683
vn 0.1380 0.9903 0.0187
vn 0.0938 0.9951 0.0311
vn 0.0938 0.9951 -0.0311
vn 0.1415 0.9874 -0.0708
vn 0.1415 0.9874 0.0708
vn -0.1416 0.9897 0.0212
vn -0.1364 0.9883 -0.0683
vn 0.1380 0.9903 -0.0187
vn -0.2379 0.9114 0.3358
vn -0.6337 0.7442 0.2114
vn -0.6337 0.7442 -0.2114
vn -0.2810 0.8639 -0.4180
vn 0.2342 0.9128 -0.3346
vn 0.6358 0.7425 -0.2109
vn 0.6358 0.7425 0.2109
vn 0.2834 0.8646 0.4150
vn 0.2834 0.8646 -0.4150
vn -0.2379 0.9114 -0.3358
vn -0.2810 0.8639 0.4180
vn 0.2342 0.9128 0.3346
vn -0.3818 0.0061 0.9242
vn -0.9248 -0.0008 0.3806
vn -0.9248 -0.0008 -0.3806
vn -0.3836 0.0062 -0.9235
vn 0.3820 0.0061 -0.9242
vn 0.9248 -0.0011 -0.3804
vn -0.0000 -1.0000 -0.0000
vn 0.9248 -0.0011 0.3804
vn 0.3835 0.0062 0.9235
vn 0.8928 -0.2570 -0.3698
vn -0.3770 -0.2560 -0.8901
vn 0.8928 -0.2570 0.3698
vn -0.8928 -0.2570 0.3698
vn 0.3628 -0.2559 -0.8960
vn 0.3770 -0.2560 0.8901
vn -0.3628 -0.2559 0.8960
vn -0.8928 -0.2570 -0.3698
vn -0.3276 -0.5378 -0.7768
vn -0.7760 -0.5427 0.3213
vn 0.7760 -0.5427 0.3213
vn 0.3178 -0.5374 -0.7811
vn -0.7760 -0.5427 -0.3213
vn -0.3178 -0.5375 0.7810
vn 0.3276 -0.5383 0.7765
vn 0.7760 -0.5427 -0.3213
vn 0.2675 -0.7100 0.6514
vn 0.5320 -0.8176 -0.2203
vn -0.2455 -0.6936 -0.6772
vn -0.5320 -0.8176 0.2203
vn 0.5320 -0.8176 0.2203
vn 0.1749 -0.7504 -0.6375
vn -0.5320 -0.8176 -0.2203
vn -0.1749 -0.7503 0.6375
vn -0.4802 -0.8216 0.3074
vn 0.8145 -0.5059 0.2841
vn 0.4801 -0.8217 -0.3073
vn -0.1708 -0.9689 -0.1792
vn -0.8145 -0.5059 0.2841
vn 0.1625 -0.9710 0.1752
vn 0.8145 -0.5059 -0.2841
vn -0.8145 -0.5059 -0.2841
vn -0.1625 -0.9710 0.1752
vn 0.2455 -0.6936 -0.6772
vn 0.3276 -0.5378 -0.7768
vn 0.3770 -0.2560 -0.8901
vn 0.3835 0.0062 -0.9235
vn 0.4802 -0.8216 0.3074
vn -0.1749 -0.7504 -0.6375
vn -0.3178 -0.5374 -0.7811
vn -0.3628 -0.2559 -0.8960
vn -0.3818 0.0061 -0.9242
vn 0.1708 -0.9689 -0.1792
vn -0.2675 -0.7100 0.6514
vn -0.3276 -0.5383 0.7765
vn -0.3770 -0.2560 0.8901
vn -0.3836 0.0062 0.9235
vn -0.4801 -0.8217 -0.3073
vn 0.1749 -0.7503 0.6375
vn 0.3178 -0.5375 0.7810
vn 0.3628 -0.2559 0.8960
vn 0.3820 0.0061 0.9242
vn -0.3404 -0.2697 0.9008
vn -0.8035 -0.4860 0.3439
vn -0.8035 -0.4860 -0.3439
vn -0.3426 -0.3105 -0.8867
vn 0.3412 -0.2699 -0.9004
vn 0.8030 -0.4862 -0.3446
vn 0.8030 -0.4862 0.3446
vn 0.3411 -0.3105 0.8872
vn 0.3411 -0.3105 -0.8872
vn -0.3404 -0.2697 -0.9008
vn -0.3426 -0.3105 0.8867
vn 0.3412 -0.2699 0.9004
vn 0.2337 -0.9118 -0.3375
vn 0.6358 -0.7418 -0.2132
vn 0.6358 -0.7418 0.2132
vn 0.2817 -0.8631 0.4191
vn -0.2300 -0.9132 0.3364
vn -0.6379 -0.7402 0.2128
vn -0.6379 -0.7402 -0.2128
vn -0.2841 -0.8638 -0.4161
vn -0.2841 -0.8638 0.4161
vn 0.2337 -0.9118 0.3375
vn 0.2817 -0.8631 -0.4191
vn -0.2300 -0.9132 -0.3364
vn 0.4018 0.4508 -0.7971
vn 0.6100 0.7693 -0.1896
vn 0.6100 0.7693 0.1896
vn 0.2516 0.1931 0.9484
vn -0.4027 0.4494 0.7974
vn -0.6100 0.7693 0.1896
vn -0.6100 0.7693 -0.1896
vn -0.2509 0.1959 -0.9480
vn -0.2516 0.1931 0.9484
vn 0.4027 0.4494 0.7974
vn 0.2509 0.1959 -0.9480
vn -0.4018 0.4508 -0.7971
vn 0.0007 1.0000 -0.0000
usemtl Leather
s off
f 61/1/1 73/2/1 76/3/1 3/4/1
f 3/4/2 76/3/2 75/5/2 5/6/2
f 5/6/3 75/5/3 77/7/3 7/8/3
f 55/9/4 78/10/4 80/11/4 9/12/4
f 49/13/5 79/14/5 82/15/5 11/16/5
f 11/16/6 82/15/6 81/17/6 13/18/6
f 4/19/7 62/20/7 2/21/7 68/22/7 16/23/7 14/24/7 12/25/7 50/26/7 10/27/7 56/28/7 8/29/7 6/30/7
f 13/18/8 81/17/8 83/31/8 15/32/8
f 67/33/9 84/34/9 74/35/9 1/36/9
f 11/16/10 13/18/10 23/37/10 22/38/10
f 55/9/11 9/12/11 21/39/11 57/40/11
f 13/18/12 15/32/12 24/41/12 23/37/12
f 3/4/13 5/6/13 19/42/13 18/43/13
f 49/13/14 11/16/14 22/38/14 51/44/14
f 67/33/15 1/36/15 17/45/15 69/46/15
f 61/1/16 3/4/16 18/43/16 63/47/16
f 5/6/17 7/8/17 20/48/17 19/42/17
f 57/40/18 21/39/18 29/49/18 58/50/18
f 18/43/19 19/42/19 27/51/19 26/52/19
f 23/37/20 24/41/20 32/53/20 31/54/20
f 51/44/21 22/38/21 30/55/21 52/56/21
f 19/42/22 20/48/22 28/57/22 27/51/22
f 63/47/23 18/43/23 26/52/23 64/58/23
f 69/46/24 17/45/24 25/59/24 70/60/24
f 22/38/25 23/37/25 31/54/25 30/55/25
f 70/60/26 25/59/26 33/61/26 71/62/26
f 30/55/27 31/54/27 39/63/27 38/64/27
f 58/50/28 29/49/28 37/65/28 59/66/28
f 26/52/29 27/51/29 35/67/29 34/68/29
f 31/54/30 32/53/30 40/69/30 39/63/30
f 52/56/31 30/55/31 38/64/31 53/70/31
f 27/51/32 28/57/32 36/71/32 35/67/32
f 64/58/33 26/52/33 34/68/33 65/72/33
f 53/70/34 38/64/34 46/73/34 54/74/34
f 35/67/35 36/71/35 44/75/35 43/76/35
f 65/72/36 34/68/36 42/77/36 66/78/36
f 71/62/37 33/61/37 41/79/37 72/80/37
f 38/64/38 39/63/38 47/81/38 46/73/38
f 59/66/39 37/65/39 45/82/39 60/83/39
f 34/68/40 35/67/40 43/76/40 42/77/40
f 39/63/41 40/69/41 48/84/41 47/81/41
f 37/65/42 53/70/42 54/74/42 45/82/42
f 29/49/43 52/56/43 53/70/43 37/65/43
f 21/39/21 51/44/21 52/56/21 29/49/21
f 9/12/14 49/13/14 51/44/14 21/39/14
f 9/12/44 80/11/44 79/14/44 49/13/44
f 36/71/45 59/66/45 60/83/45 44/75/45
f 28/57/46 58/50/46 59/66/46 36/71/46
f 20/48/18 57/40/18 58/50/18 28/57/18
f 7/8/11 55/9/11 57/40/11 20/48/11
f 7/8/47 77/7/47 78/10/47 55/9/47
f 33/85/48 65/72/48 66/78/48 41/86/48
f 25/87/49 64/58/49 65/72/49 33/85/49
f 17/88/23 63/47/23 64/58/23 25/87/23
f 1/89/16 61/1/16 63/47/16 17/88/16
f 1/89/50 74/90/50 73/2/50 61/1/50
f 40/69/51 71/62/51 72/80/51 48/84/51
f 32/53/52 70/60/52 71/62/52 40/69/52
f 24/41/24 69/46/24 70/60/24 32/53/24
f 15/32/15 67/33/15 69/46/15 24/41/15
f 15/32/53 83/31/53 84/34/53 67/33/53
f 86/91/54 85/92/54 73/93/54 74/94/54
f 88/95/55 87/96/55 75/97/55 76/98/55
f 87/96/56 89/99/56 77/100/56 75/97/56
f 89/99/57 90/101/57 78/102/57 77/100/57
f 92/103/58 91/104/58 79/105/58 80/106/58
f 94/107/59 93/108/59 81/109/59 82/110/59
f 93/108/60 95/111/60 83/112/60 81/109/60
f 95/111/61 96/113/61 84/114/61 83/112/61
f 91/104/62 94/107/62 82/110/62 79/105/62
f 90/101/63 92/103/63 80/106/63 78/102/63
f 85/92/64 88/95/64 76/98/64 73/93/64
f 96/113/65 86/91/65 74/94/65 84/114/65
f 2/21/66 62/20/66 85/92/66 86/91/66
f 4/19/67 6/30/67 87/96/67 88/95/67
f 6/30/68 8/29/68 89/99/68 87/96/68
f 8/29/69 56/28/69 90/101/69 89/99/69
f 10/27/70 50/26/70 91/104/70 92/103/70
f 12/25/71 14/24/71 93/108/71 94/107/71
f 14/24/72 16/23/72 95/111/72 93/108/72
f 16/23/73 68/22/73 96/113/73 95/111/73
f 50/26/74 12/25/74 94/107/74 91/104/74
f 56/28/75 10/27/75 92/103/75 90/101/75
f 62/20/76 4/19/76 88/95/76 85/92/76
f 68/22/77 2/21/77 86/91/77 96/113/77
f 157/115/78 99/116/78 172/117/78 169/118/78
f 99/116/79 101/119/79 171/120/79 172/117/79
f 101/119/80 103/121/80 173/122/80 171/120/80
f 151/123/81 105/124/81 176/125/81 174/126/81
f 145/127/82 107/128/82 178/129/82 175/130/82
f 107/128/83 109/131/83 177/132/83 178/129/83
f 100/133/84 102/134/84 104/135/84 152/136/84 106/137/84 146/138/84 108/139/84 110/140/84 112/141/84 164/142/84 98/143/84 158/144/84
f 109/131/85 111/145/85 179/146/85 177/132/85
f 163/147/86 97/148/86 170/149/86 180/150/86
f 107/128/87 118/151/87 119/152/87 109/131/87
f 151/123/88 153/153/88 117/154/88 105/124/88
f 109/131/89 119/152/89 120/155/89 111/145/89
f 99/116/90 114/156/90 115/157/90 101/119/90
f 145/127/91 147/158/91 118/151/91 107/128/91
f 163/147/92 165/159/92 113/160/92 97/148/92
f 157/115/93 159/161/93 114/156/93 99/116/93
f 101/119/94 115/157/94 116/162/94 103/121/94
f 153/153/95 154/163/95 125/164/95 117/154/95
f 114/156/96 122/165/96 123/166/96 115/157/96
f 119/152/97 127/167/97 128/168/97 120/155/97
f 147/158/98 148/169/98 126/170/98 118/151/98
f 115/157/99 123/166/99 124/171/99 116/162/99
f 159/161/100 160/172/100 122/165/100 114/156/100
f 165/159/101 166/173/101 121/174/101 113/160/101
f 118/151/102 126/170/102 127/167/102 119/152/102
f 166/173/103 167/175/103 129/176/103 121/174/103
f 126/170/104 134/177/104 135/178/104 127/167/104
f 154/163/105 155/179/105 133/180/105 125/164/105
f 122/165/106 130/181/106 131/182/106 123/166/106
f 127/167/107 135/178/107 136/183/107 128/168/107
f 148/169/108 149/184/108 134/177/108 126/170/108
f 123/166/109 131/182/109 132/185/109 124/171/109
f 160/172/110 161/186/110 130/181/110 122/165/110
f 149/184/111 150/187/111 142/188/111 134/177/111
f 131/182/112 139/189/112 140/190/112 132/185/112
f 161/186/113 162/191/113 138/192/113 130/181/113
f 167/175/114 168/193/114 137/194/114 129/176/114
f 134/177/115 142/188/115 143/195/115 135/178/115
f 155/179/116 156/196/116 141/197/116 133/180/116
f 130/181/117 138/192/117 139/189/117 131/182/117
f 135/178/118 143/195/118 144/198/118 136/183/118
f 133/180/119 141/197/119 150/187/119 149/184/119
f 125/164/120 133/180/120 149/184/120 148/169/120
f 117/154/121 125/164/121 148/169/121 147/158/121
f 105/124/122 117/154/122 147/158/122 145/127/122
f 105/124/123 145/127/123 175/130/123 176/125/123
f 132/185/124 140/190/124 156/196/124 155/179/124
f 124/171/125 132/185/125 155/179/125 154/163/125
f 116/162/126 124/171/126 154/163/126 153/153/126
f 103/121/127 116/162/127 153/153/127 151/123/127
f 103/121/128 151/123/128 174/126/128 173/122/128
f 129/199/129 137/200/129 162/191/129 161/186/129
f 121/201/130 129/199/130 161/186/130 160/172/130
f 113/202/131 121/201/131 160/172/131 159/161/131
f 97/203/132 113/202/132 159/161/132 157/115/132
f 97/203/133 157/115/133 169/118/133 170/204/133
f 136/183/134 144/198/134 168/193/134 167/175/134
f 128/168/135 136/183/135 167/175/135 166/173/135
f 120/155/136 128/168/136 166/173/136 165/159/136
f 111/145/137 120/155/137 165/159/137 163/147/137
f 111/145/138 163/147/138 180/150/138 179/146/138
f 182/205/139 170/206/139 169/207/139 181/208/139
f 184/209/140 172/210/140 171/211/140 183/212/140
f 183/212/141 171/211/141 173/213/141 185/214/141
f 185/214/142 173/213/142 174/215/142 186/216/142
f 188/217/143 176/218/143 175/219/143 187/220/143
f 190/221/144 178/222/144 177/223/144 189/224/144
f 189/224/145 177/223/145 179/225/145 191/226/145
f 191/226/146 179/225/146 180/227/146 192/228/146
f 187/220/147 175/219/147 178/222/147 190/221/147
f 186/216/148 174/215/148 176/218/148 188/217/148
f 181/208/149 169/207/149 172/210/149 184/209/149
f 192/228/150 180/227/150 170/206/150 182/205/150
f 98/143/151 182/205/151 181/208/151 158/144/151
f 100/133/152 184/209/152 183/212/152 102/134/152
f 102/134/153 183/212/153 185/214/153 104/135/153
f 104/135/154 185/214/154 186/216/154 152/136/154
f 106/137/155 188/217/155 187/220/155 146/138/155
f 108/139/156 190/221/156 189/224/156 110/140/156
f 110/140/157 189/224/157 191/226/157 112/141/157
f 112/141/158 191/226/158 192/228/158 164/142/158
f 146/138/159 187/220/159 190/221/159 108/139/159
f 152/136/160 186/216/160 188/217/160 106/137/160
f 158/144/161 181/208/161 184/209/161 100/133/161
f 164/142/162 192/228/162 182/205/162 98/143/162
f 66/78/163 42/77/163 138/192/163 162/191/163
f 42/77/164 43/76/164 139/189/164 138/192/164
f 43/76/165 44/75/165 140/190/165 139/189/165
f 60/83/166 45/82/166 141/197/166 156/196/166
f 54/74/167 46/73/167 142/188/167 150/187/167
f 46/73/168 47/81/168 143/195/168 142/188/168
f 47/81/169 48/84/169 144/198/169 143/195/169
f 72/80/170 41/79/170 137/194/170 168/193/170
f 45/82/171 54/74/171 150/187/171 141/197/171
f 44/75/172 60/83/172 156/196/172 140/190/172
f 41/86/173 66/78/173 162/191/173 137/200/173
f 48/84/174 72/80/174 168/193/174 144/198/174
f 172/229/175 169/230/175 170/231/175 180/232/175 179/233/175 177/234/175 178/235/175 175/236/175 176/237/175 174/238/175 173/239/175 171/240/175
